<?xml version="1.0" standalone="no"?>
<!DOCTYPE svg PUBLIC "-//W3C//DTD SVG 20010904//EN"
 "http://www.w3.org/TR/2001/REC-SVG-20010904/DTD/svg10.dtd">
<svg version="1.0" xmlns="http://www.w3.org/2000/svg"
 width="490.000000pt" height="734.000000pt" viewBox="0 0 490.000000 734.000000"
 preserveAspectRatio="xMidYMid meet">
<metadata>
Created by potrace 1.16, written by Peter Selinger 2001-2019
</metadata>
<g transform="translate(0.000000,734.000000) scale(0.100000,-0.100000)"
fill="#000000" stroke="none">
<path d="M0 5381 c0 -1703 2 -1960 15 -1971 21 -17 35 -3 35 36 0 19 5 34 10
34 6 0 10 9 10 20 0 48 64 150 94 150 5 0 0 -10 -12 -23 -37 -39 -24 -41 20
-3 42 36 58 41 66 18 2 -7 -2 -10 -12 -6 -23 9 -20 0 15 -37 44 -47 49 -68 38
-143 -12 -87 -32 -125 -114 -216 -38 -41 -83 -96 -102 -122 -18 -25 -40 -49
-48 -52 -13 -5 -15 -195 -15 -1536 l0 -1530 1224 0 c966 0 1225 3 1229 13 4 9
6 9 6 0 1 -17 88 -17 94 0 4 9 6 9 6 0 1 -10 242 -13 1171 -13 l1170 0 0 3670
0 3670 -2450 0 -2450 0 0 -1959z m1605 -531 c5 -24 0 -41 -24 -78 -47 -73
-142 -162 -193 -182 -25 -9 -56 -25 -69 -35 -27 -19 -24 -19 66 18 55 22 231
59 218 46 -5 -5 -39 -16 -76 -25 -59 -15 -66 -19 -55 -33 10 -13 10 -14 -2 -3
-24 21 -67 13 -132 -24 -81 -47 -96 -61 -120 -107 -11 -22 -22 -36 -25 -33 -3
3 9 29 26 58 l33 53 -33 -30 c-18 -16 -38 -35 -43 -40 -21 -20 -36 -54 -30
-68 3 -8 -1 -21 -8 -28 -14 -15 -21 -122 -7 -113 5 3 6 -1 3 -9 -3 -9 11 -26
37 -46 24 -17 39 -31 34 -31 -5 0 1 -9 13 -20 12 -11 27 -20 35 -20 23 0 86
-54 87 -75 1 -11 4 -15 6 -8 4 9 11 9 29 1 14 -6 23 -14 21 -17 -2 -3 11 -7
29 -8 47 -4 121 -38 99 -47 -9 -3 -23 -1 -31 5 -7 7 -16 9 -19 6 -11 -11 36
-27 60 -21 16 4 38 -2 64 -16 21 -12 50 -20 63 -18 20 3 15 8 -33 31 -31 15
-61 27 -67 27 -5 0 -12 4 -15 9 -6 9 67 -8 118 -28 16 -6 32 -9 35 -5 3 4 0 9
-7 11 -14 6 -112 71 -127 85 -9 10 10 6 55 -10 12 -4 11 -1 -3 15 -17 19 -16
20 10 33 16 7 53 15 83 19 l54 6 -87 35 c-99 39 -142 75 -130 107 4 11 21 35
36 53 26 31 35 34 90 37 l62 4 -55 -23 c-54 -23 -55 -24 -58 -69 -4 -65 20
-92 103 -114 55 -15 75 -16 132 -7 42 7 74 18 83 29 33 38 46 44 74 32 22 -10
30 -9 61 12 42 29 48 69 13 93 -21 15 -23 14 -34 -14 -15 -34 -30 -36 -89 -15
-29 10 -34 14 -17 15 13 0 34 11 48 25 31 31 34 31 34 -2 1 -24 2 -25 11 -11
14 24 -4 54 -35 60 -14 3 -23 2 -21 -3 6 -9 -5 -39 -15 -39 -4 0 -5 11 -3 24
3 13 0 27 -6 30 -6 4 -11 1 -11 -7 0 -16 -84 -30 -128 -21 -23 5 -27 10 -27
42 0 26 5 38 17 40 22 4 156 -24 200 -42 42 -18 118 -102 118 -131 0 -17 2
-17 10 -5 8 12 10 9 10 -13 0 -36 -41 -75 -89 -83 -20 -3 -49 -15 -64 -26 -54
-37 -106 -48 -236 -49 l-125 -1 35 -33 c39 -36 134 -76 177 -74 l27 1 -25 7
-25 7 30 6 c17 3 55 13 85 23 85 26 124 29 139 11 11 -13 9 -14 -16 -7 -56 15
-77 -4 -48 -43 30 -40 20 -53 -47 -59 -52 -5 -68 -3 -88 12 -14 10 -46 22 -70
26 -25 3 -53 9 -62 11 -10 3 -18 1 -18 -5 0 -6 11 -11 24 -11 32 0 56 -10 56
-22 0 -6 8 -17 18 -24 28 -21 -2 -16 -60 11 -63 29 -87 33 -68 10 13 -15 107
-48 175 -61 29 -5 36 -4 30 6 -6 10 0 12 23 8 21 -3 34 1 43 14 16 22 64 23
99 2 14 -8 17 -13 7 -10 -11 4 -16 2 -12 -5 4 -6 14 -8 22 -5 8 3 26 -3 40
-14 28 -22 48 -27 37 -9 -4 8 1 9 16 4 85 -27 154 -44 162 -39 5 3 17 3 26 -1
13 -5 10 -9 -17 -21 -26 -11 -60 -13 -140 -9 -58 3 -119 8 -136 11 -24 3 -27
2 -17 -8 10 -10 65 -13 213 -13 165 0 195 -2 172 -12 -34 -15 -15 -17 22 -3
24 9 26 8 19 -12 -3 -13 -12 -29 -18 -37 -13 -16 -16 -293 -3 -356 4 -25 4
-34 -2 -25 -8 13 -18 58 -53 227 -6 29 -18 55 -26 58 -8 3 -16 4 -17 3 -7 -8
19 -158 27 -158 5 0 7 -8 4 -18 -4 -10 2 -44 13 -75 10 -31 17 -57 16 -57 -1
0 -16 23 -34 50 -32 50 -57 59 -46 17 5 -18 1 -16 -23 11 -26 30 -62 46 -46
21 3 -6 -5 -3 -20 6 -31 20 -36 4 -10 -33 21 -30 -1 -28 -32 3 -27 27 -46 33
-38 11 4 -11 -2 -12 -38 -2 -24 6 -49 16 -56 23 -16 16 -18 16 -41 1 -15 -9
-24 -8 -43 4 -13 9 -36 13 -54 11 -19 -3 -45 2 -65 13 -19 9 -41 18 -49 18
-17 2 -86 38 -110 58 -9 7 -26 28 -39 46 -27 38 -30 37 -35 -7 -4 -37 -11 -46
-43 -56 -32 -9 -29 9 3 24 17 7 24 17 20 26 -3 8 -1 15 4 15 6 0 10 5 10 11 0
5 -4 8 -10 4 -5 -3 -46 12 -92 34 -46 22 -123 57 -173 79 -49 22 -90 43 -90
48 0 5 -26 33 -57 62 -102 96 -181 235 -213 372 -10 41 -22 81 -28 88 -7 9 -6
11 5 7 8 -3 20 -14 28 -24 11 -16 17 -17 36 -9 17 8 27 8 39 -2 12 -10 15 -10
15 3 0 9 -12 25 -26 36 -19 15 -22 21 -11 21 14 0 14 3 1 28 -7 15 -14 33 -14
40 0 19 46 96 71 118 18 16 17 13 -4 -19 -33 -49 -42 -76 -28 -90 12 -12 21
-6 25 17 1 8 10 24 21 36 14 15 15 20 4 20 -8 0 1 9 19 20 18 11 30 25 26 31
-9 15 92 108 138 126 21 8 38 21 38 28 0 8 10 15 22 17 21 3 21 4 -10 39 -52
60 -55 56 118 132 30 13 61 31 69 40 21 26 39 20 46 -13z m2030 -88 c106 -17
158 -33 250 -78 97 -47 115 -53 95 -29 -7 8 -9 15 -5 15 8 0 155 -90 155 -96
0 -1 -28 11 -61 27 -49 25 -63 28 -70 17 -6 -8 -3 -16 7 -23 9 -5 37 -27 61
-47 24 -21 47 -38 51 -38 4 0 -11 16 -33 35 -42 36 -42 42 -2 24 22 -10 66
-69 51 -69 -3 0 0 -7 7 -17 10 -11 11 -17 3 -20 -8 -3 -5 -18 10 -46 24 -48
29 -165 7 -190 -8 -10 -8 -17 -2 -21 14 -9 2 -36 -17 -36 -8 0 -12 -3 -9 -7
15 -14 -198 -127 -235 -125 -15 1 -73 -9 -129 -23 -108 -26 -126 -29 -94 -14
14 6 -2 8 -50 4 -95 -6 -136 -15 -128 -28 4 -6 0 -8 -10 -4 -9 3 -55 -5 -102
-19 -47 -14 -90 -22 -94 -20 -11 7 -155 -44 -159 -55 -2 -5 -27 -9 -55 -9
l-52 1 28 15 c37 20 28 30 -14 15 -18 -6 -64 -10 -103 -10 l-71 2 80 9 c44 5
98 10 120 12 22 1 47 5 55 9 107 42 326 108 346 103 37 -10 29 8 -28 60 -29
26 -42 41 -28 34 14 -7 36 -23 50 -35 17 -15 43 -24 79 -28 l54 -6 -24 27
c-14 15 -38 46 -54 70 -15 23 -52 64 -82 89 -29 25 -53 51 -53 56 0 6 12 0 28
-14 15 -14 45 -37 67 -51 22 -14 68 -51 103 -82 39 -35 72 -56 87 -56 37 0 38
16 2 33 -39 19 -65 46 -106 111 -37 60 -39 79 -6 111 28 29 57 35 32 7 -10
-10 -17 -25 -16 -33 0 -8 5 -4 11 9 6 12 20 22 32 22 20 -1 20 -2 4 -14 -24
-18 -23 -35 8 -90 25 -44 67 -86 86 -86 26 0 178 52 178 61 0 6 12 26 26 44
l26 35 -36 63 c-19 35 -42 69 -50 76 -8 7 -41 14 -73 15 -32 2 -84 10 -116 17
-46 11 -65 11 -100 1 -72 -21 -76 -21 -118 -6 -50 17 -62 18 -53 2 5 -8 2 -9
-12 -3 -10 4 -36 11 -57 15 -61 12 -60 24 3 32 18 3 6 9 -40 21 -60 15 -62 16
-18 12 26 -2 88 -21 138 -40 75 -30 96 -35 118 -26 l27 9 -28 1 c-37 1 -107
24 -107 35 0 4 10 6 23 3 12 -3 45 -8 72 -11 44 -5 46 -5 18 4 -49 16 -40 27
23 29 30 1 53 -2 50 -7 -3 -5 7 -7 22 -4 l27 5 -30 9 c-16 5 -48 13 -70 17
-30 7 -16 8 55 6 92 -3 215 -27 234 -46 6 -5 17 -9 25 -9 8 0 3 10 -15 25 -27
23 -27 24 -6 20 47 -9 121 -75 148 -131 14 -30 30 -52 35 -49 5 4 2 19 -6 36
-14 26 -14 30 0 35 8 4 27 4 43 0 25 -5 26 -5 5 6 -13 6 -23 15 -23 20 0 5
-10 6 -22 3 -16 -4 -19 -3 -10 3 11 7 4 19 -30 51 l-43 42 35 -16 35 -15 -28
22 c-16 13 -49 31 -75 41 -29 10 -37 16 -19 13 37 -5 34 10 -5 29 -26 13 -29
13 -15 1 17 -13 17 -14 -10 -20 -15 -3 -41 -2 -58 3 -28 9 -29 9 -5 10 21 1
18 5 -20 22 -27 12 -56 18 -72 15 -15 -3 -65 1 -112 10 -46 8 -88 13 -93 12
-16 -4 -93 13 -93 21 0 5 -32 12 -71 15 -84 9 -85 16 -2 17 33 1 66 5 74 10
15 11 128 6 224 -9z m-1339 -4 c16 -17 -12 -23 -114 -25 -141 -3 -192 -10
-212 -28 -9 -8 -38 -17 -64 -20 -27 -2 -54 -9 -61 -15 -7 -6 -26 -8 -42 -5
-21 5 -24 4 -13 -4 16 -11 9 -14 -25 -12 -17 2 -18 0 -5 -9 12 -9 11 -10 -7
-5 -21 6 -53 -5 -77 -27 -6 -5 -26 -18 -45 -29 -49 -29 -32 -33 44 -10 37 12
75 21 84 20 9 -1 -2 -7 -24 -14 -22 -7 -62 -22 -88 -34 -27 -12 -53 -19 -58
-15 -5 3 -9 2 -9 -3 0 -4 -13 -14 -30 -21 -27 -12 -105 -88 -178 -172 -46 -53
-46 -32 0 29 35 45 37 51 14 36 -14 -10 -26 -21 -26 -25 0 -5 -9 -12 -20 -15
-11 -3 -20 -13 -20 -22 0 -8 -7 -30 -16 -49 -14 -29 -14 -37 -3 -51 13 -16 12
-16 -13 0 -16 10 -28 13 -28 8 0 -5 5 -13 10 -16 6 -3 10 -14 10 -23 0 -12
-13 -4 -40 25 -39 41 -52 84 -30 98 6 3 10 13 10 21 0 14 -2 14 -15 0 -8 -8
-15 -24 -15 -36 0 -28 -24 -21 -28 8 -2 16 9 33 36 58 22 20 43 46 46 60 8 32
40 48 56 29 9 -11 9 -15 1 -16 -6 -1 -15 -2 -21 -3 -5 0 -15 -7 -22 -15 -11
-12 -10 -13 4 -8 23 8 46 -13 50 -47 3 -26 5 -28 18 -15 24 23 173 141 221
173 37 26 40 31 23 37 -18 7 -18 8 2 8 12 1 27 8 34 16 7 8 22 15 34 15 15 0
17 3 8 9 -10 6 -5 11 19 20 17 6 41 11 51 11 11 0 17 4 14 9 -3 4 13 14 35 20
23 7 38 15 35 18 -7 8 79 52 124 63 41 10 355 8 366 -2z m604 -47 c0 -9 8 -12
28 -7 66 15 87 17 77 8 -5 -6 -19 -12 -30 -14 -11 -2 -19 -10 -17 -16 2 -14 6
-14 -120 -12 -63 1 -98 -3 -98 -9 0 -6 -4 -11 -10 -11 -5 0 -10 6 -10 14 0 26
-42 31 -180 22 l-85 -5 75 13 c43 8 103 12 140 9 73 -6 75 8 2 18 -28 4 9 6
90 5 109 -1 138 -4 138 -15z m1246 -11 c106 -60 177 -172 188 -295 8 -85 -10
-155 -54 -210 -36 -45 -99 -94 -121 -95 -9 0 -63 -23 -120 -51 -57 -28 -144
-61 -194 -75 -101 -27 -106 -28 -85 -14 18 12 9 12 -48 1 -24 -5 -40 -5 -35 0
4 4 37 11 71 14 97 8 247 64 354 131 21 13 48 24 60 24 19 0 65 19 47 20 -3 0
13 19 35 43 23 23 49 65 59 92 24 69 23 175 -2 224 -22 43 -99 123 -151 156
-39 25 -78 65 -64 65 5 0 32 -13 60 -30z m-453 -264 c18 -7 48 -28 67 -47 18
-19 36 -33 40 -32 3 1 6 -6 7 -15 2 -47 11 -84 22 -95 8 -8 1 -15 -31 -29 -93
-37 -141 -14 -144 70 -2 36 0 40 5 17 l6 -30 24 34 c13 18 37 39 53 46 l30 12
-49 29 c-50 30 -121 38 -173 20 l-25 -8 24 21 c28 25 94 28 144 7z m-1058
-501 c-48 -28 -55 -34 -35 -35 14 0 47 7 74 15 67 20 133 20 133 -1 0 -12 -7
-14 -26 -11 -41 8 -119 -10 -154 -37 -60 -45 -104 -65 -116 -53 -8 8 -19 3
-41 -18 -52 -50 -44 -19 11 44 31 36 71 69 98 81 25 12 57 28 71 36 14 7 30
14 35 14 6 0 -17 -16 -50 -35z m1330 -32 c-5 -10 -7 -22 -6 -26 2 -10 -13 -14
-82 -22 -47 -5 -58 -10 -55 -23 2 -9 12 -17 23 -18 11 0 29 -1 40 -3 20 -2 20
-2 1 -13 -11 -6 -32 -11 -48 -10 -15 0 -28 -2 -28 -6 0 -4 -22 -8 -48 -8 -93
-3 -162 -31 -217 -87 -28 -29 -66 -75 -84 -102 l-34 -50 36 34 c50 47 47 30
-4 -23 -22 -24 -47 -52 -55 -62 -14 -18 -14 -17 -4 4 6 13 9 30 6 39 -4 9 13
37 45 74 28 32 48 63 44 69 -6 10 32 47 84 82 14 10 58 28 96 40 70 21 103 38
75 38 -25 0 -183 -60 -227 -86 -41 -24 -68 -56 -57 -67 3 -3 -4 -8 -15 -12
-14 -4 -21 -15 -21 -33 0 -21 -2 -24 -10 -12 -8 12 -10 11 -10 -6 0 -22 -50
-107 -71 -119 -9 -6 -10 -3 -4 11 4 10 8 26 9 34 1 9 6 22 11 30 8 13 6 13 -8
1 -9 -7 -17 -19 -17 -25 0 -6 -13 -25 -28 -43 -15 -17 -33 -39 -40 -50 -7 -10
-5 -2 4 17 9 19 28 48 41 64 13 16 22 35 18 44 -3 8 6 35 20 59 30 54 29 52 8
49 -10 -2 -26 -29 -43 -73 -25 -65 -74 -151 -56 -98 36 103 46 138 41 143 -3
3 -15 -4 -28 -16 -13 -12 -28 -22 -34 -22 -7 0 -15 -9 -18 -20 -3 -11 -11 -20
-16 -20 -5 0 -9 -10 -10 -22 0 -13 -3 -17 -6 -9 -3 7 -20 -16 -40 -55 -36 -70
-60 -107 -47 -69 4 11 10 25 14 30 9 13 40 105 40 119 0 6 -14 -16 -31 -49
-35 -68 -80 -135 -102 -154 -9 -7 0 20 20 59 38 76 40 102 3 48 l-22 -33 7 30
c15 71 15 80 1 45 -8 -19 -15 -51 -16 -70 -1 -19 -5 -44 -10 -55 -7 -15 -8 -9
-5 20 2 22 2 32 -1 23 -3 -10 -10 -18 -15 -18 -6 0 -8 -4 -5 -9 4 -5 1 -20 -4
-33 -9 -21 -10 -20 -4 7 l6 30 -37 -40 c-32 -36 -31 -34 9 23 54 76 82 180 71
267 -5 46 -4 55 9 55 9 0 16 -6 17 -12 0 -7 4 -4 8 7 12 31 2 53 -29 57 -35 5
-181 -22 -175 -32 3 -4 26 -3 51 2 99 21 113 -15 70 -177 -27 -98 -61 -193
-50 -140 8 43 22 169 18 173 -1 2 -8 -14 -15 -37 -6 -22 -15 -38 -19 -36 -3 2
-16 -30 -29 -72 -12 -41 -24 -73 -27 -70 -4 3 0 39 6 79 27 158 9 271 -49 298
-14 7 -60 15 -101 17 -69 5 -77 3 -96 -18 -31 -35 -44 -111 -44 -266 0 -75 -2
-134 -5 -131 -3 2 -5 76 -6 164 -1 87 -4 154 -6 147 -2 -6 -10 -85 -17 -175
-13 -153 -15 -155 -21 -23 -1 17 -3 53 -5 80 -3 49 -4 48 -10 -20 l-6 -70 -2
85 c-2 130 38 214 129 270 51 31 126 50 138 34 23 -32 157 -44 216 -20 18 8
36 12 39 9 10 -11 102 -6 125 6 13 7 25 11 27 8 5 -5 -40 -43 -59 -50 -7 -2
-9 -8 -5 -12 9 -9 168 30 210 51 32 16 41 18 33 4 -3 -5 9 -3 28 5 44 18 237
67 249 63 5 -2 -26 -13 -69 -24 -43 -12 -116 -35 -161 -52 -49 -18 -79 -25
-72 -18 7 10 -14 6 -66 -10 -43 -14 -97 -28 -121 -31 -35 -5 -41 -8 -32 -19 6
-8 20 -14 29 -14 10 0 21 -8 23 -17 3 -13 5 -11 7 7 1 14 2 28 1 33 0 4 3 7 9
7 5 0 10 -5 10 -11 0 -7 9 -9 23 -4 67 20 164 45 178 45 9 0 19 -9 22 -20 5
-19 9 -19 79 17 41 21 73 40 72 41 -1 2 -28 -4 -59 -13 -32 -9 -59 -14 -62
-12 -5 6 76 31 192 58 44 11 88 24 97 29 22 12 28 12 28 2 0 -5 -18 -16 -41
-26 -56 -25 -44 -30 17 -7 59 22 190 38 180 22 -11 -18 5 -13 21 7 8 9 12 11
8 5 -9 -18 3 -16 22 2 19 19 28 12 18 -12z m-1190 -147 c44 -19 75 -78 75
-143 0 -30 -4 -43 -9 -35 -5 8 -10 -17 -14 -64 -3 -42 -10 -81 -16 -87 -6 -6
-11 -22 -12 -37 0 -14 -3 -20 -5 -13 -3 6 2 45 10 87 9 41 16 88 15 103 l0 28
-12 -25 -11 -25 -3 30 c-11 88 -30 28 -32 -97 -1 -36 -5 -58 -12 -58 -8 0 -10
17 -5 58 19 151 19 177 -1 200 -21 26 -49 22 -59 -10 -3 -11 -8 -17 -11 -14
-3 3 5 21 17 40 34 56 74 47 108 -23 l12 -26 -6 30 c-9 48 -41 75 -89 75 -64
0 -99 -33 -117 -110 -5 -24 -6 -15 -3 30 4 50 10 69 26 83 26 21 106 23 154 3z
m-270 -554 l-6 -27 17 23 c21 28 38 29 24 1 -7 -11 -9 -23 -6 -27 3 -3 6 0 6
6 0 7 5 12 10 12 6 0 10 -24 10 -52 0 -29 5 -60 10 -68 8 -13 10 -12 10 5 0
12 3 15 9 10 6 -6 -3 -49 -25 -114 -19 -57 -32 -106 -30 -109 3 -2 14 26 25
62 24 78 43 117 67 137 16 12 17 12 11 -3 -4 -12 7 -27 42 -53 56 -40 61 -42
61 -17 0 13 2 14 9 3 5 -7 17 -11 27 -7 20 6 23 2 64 -103 12 -30 31 -68 42
-84 12 -17 16 -27 9 -23 -7 5 -1 -10 14 -32 l27 -41 -31 -30 c-18 -17 -40 -31
-51 -31 -10 0 -21 -6 -24 -12 -3 -10 -9 -8 -19 5 -8 9 -23 17 -34 17 -18 0
-19 -8 -20 -122 -1 -68 -8 -161 -17 -207 -18 -92 -21 -342 -5 -376 6 -14 8 -4
4 35 -4 36 -2 50 4 41 5 -8 9 -65 9 -128 0 -91 -4 -120 -19 -150 -10 -21 -19
-30 -19 -21 0 9 -7 14 -17 13 -36 -4 -84 -18 -88 -25 -3 -5 4 -6 15 -3 16 4
20 0 20 -17 0 -19 -4 -22 -30 -18 -16 3 -30 1 -30 -3 0 -13 -90 -58 -105 -52
-19 7 -19 5 9 61 36 71 39 103 21 177 -10 37 -14 81 -11 98 5 27 4 29 -6 13
-8 -15 -8 -42 1 -107 10 -80 9 -92 -9 -141 -23 -62 -93 -148 -121 -148 -10 0
-19 -4 -19 -9 0 -5 -7 -11 -15 -15 -24 -9 -9 50 23 92 15 20 21 32 13 28 -8
-5 -12 -5 -10 0 3 5 13 27 24 49 56 120 67 147 71 191 3 27 12 78 20 114 24
102 38 362 24 440 -6 36 -12 70 -12 77 -1 6 -20 14 -44 18 -62 9 -79 33 -67
95 8 40 7 50 -3 50 -17 0 -47 57 -34 65 6 4 6 15 0 31 -8 19 -6 32 7 52 10 15
21 29 25 32 18 13 80 200 91 272 7 52 14 73 19 61 6 -16 7 -16 14 4 9 31 25
18 19 -15z"/>
<path d="M3804 4492 c3 -6 -2 -13 -11 -15 -10 -2 -6 -3 8 -1 41 5 83 -29 122
-99 33 -58 36 -68 26 -96 -10 -28 -8 -34 18 -64 25 -28 31 -31 42 -19 7 7 18
11 25 9 6 -3 27 16 45 40 39 50 50 121 25 160 -10 16 -11 22 -1 26 6 2 -8 7
-32 11 -24 4 -46 4 -49 1 -3 -3 2 -5 11 -5 11 0 27 -20 43 -56 21 -47 24 -61
15 -81 -12 -25 -65 -53 -102 -53 -18 0 -21 4 -16 29 12 61 -42 165 -103 196
-39 20 -73 29 -66 17z"/>
</g>
</svg>
